<?xml version="1.0" encoding="UTF-8"?><svg id="Calque_2" xmlns="http://www.w3.org/2000/svg" viewBox="0 0 1141.62 342.37"><g id="Calque_1-2"><path d="m79.86,70.47c45.37,0,80.15,37.21,80.15,85.01s-34.78,84.7-80.15,84.7C34.48,240.49,0,203.27,0,154.88s34.79-84.4,79.86-84.4Zm-33.58,85.01c0,25.41,14.22,43.56,33.58,43.56s33.58-17.84,33.58-43.25-14.22-42.97-33.58-42.97-33.58,17.85-33.58,42.66Z" style="fill:#383737; stroke-width:0px;"/><path d="m287.65,87.72c3.02-9.68,11.49-16.33,21.78-16.33,13.31,0,23.89,10.28,23.89,23.29,0,3.63-.59,6.96-2.11,9.99l-45.67,114.95c-5.46,13.91-12.1,19.36-24.51,19.36s-20.57-6.05-25.72-19.36l-45.98-114.95c-1.21-3.02-1.8-6.36-1.8-9.99,0-13,9.98-23.29,23.89-23.29,9.68,0,18.46,6.65,21.78,16.33l27.22,82.88,27.22-82.88Z" style="fill:#383737; stroke-width:0px;"/><path d="m418.61,186.34c5.75,7.56,17.85,13.31,30.56,13.31,9.99,0,20.57-3.02,30.56-8.47,10.58-6.05,14.21-7.26,18.43-7.26,10.91,0,19.98,8.17,19.98,18.75,0,19.05-35.09,37.51-71.99,37.51-50.21,0-85.3-34.78-85.3-83.49s35.09-85.91,80.76-85.91c42.97,0,78.96,36.3,78.96,79.86,0,13.91-5.46,19.05-20.26,19.05h-89.54c2.72,7.26,5.14,13.01,7.85,16.64Zm-8.77-46.28h64.42c-4.22-21.19-14.83-32.08-31.76-32.08s-28.13,11.2-32.67,32.08Z" style="fill:#383737; stroke-width:0px;"/><path d="m614.63,81.07c6.36-6.05,15.11-9.98,22.37-9.98,13.62,0,23.91,9.98,23.91,23.58,0,4.84-1.52,9.09-4.84,12.72-3.32,3.63-5.15,4.53-16.35,8.47-20.26,7.26-33.57,19.36-33.57,30.55v69.57c0,12.7-10.58,23.3-23.3,23.3s-23.58-10.3-23.58-22.99v-122.21c0-12.41,10.89-22.69,23.89-22.69,5.43,0,13.93,7.26,22.68,19.36,2.73-3.63,5.77-6.96,8.78-9.68Z" style="fill:#383737; stroke-width:0px;"/><path d="m690.24,115.24c-12.1,0-21.47-9.37-21.47-21.16s9.37-20.57,21.16-20.57h8.19v-23.3c0-27.83,19.64-49,45.05-49h8.78c15.42,0,26.31,8.77,26.31,21.48,0,11.19-7.26,19.05-18.15,19.36-12.41.3-14.83,2.72-14.83,14.82v16.64h14.23c11.79,0,20.88,9.37,20.88,20.87s-9.09,20.87-20.59,20.87h-14.21v101.34c0,12.7-10.89,23.29-23.89,23.29s-23.3-10.58-23.3-23.58v-101.04h-8.16Z" style="fill:#383737; stroke-width:0px;"/><path d="m878.38,239.87c-46.6,0-73.81-24.5-73.81-66.84v-78.35c0-12.69,10.89-23.29,23.89-23.29s23.3,10.59,23.3,23.29v74.12c0,19.05,9.68,29.94,26.62,29.94s26.9-10.89,26.9-29.94v-74.12c0-12.69,10.61-23.29,23.3-23.29s23.61,10.59,23.61,23.29v78.35c0,42.35-26.93,66.84-73.81,66.84Z" style="fill:#383737; stroke-width:0px;"/><path d="m1023.24,239.57c-13,0-23.58-10.59-23.58-23.29V23.59c0-13,10.89-23.59,23.58-23.59s23.61,10.59,23.61,23.59v192.39c0,13-10.89,23.59-23.61,23.59Z" style="fill:#383737; stroke-width:0px;"/><path d="m1117.91,239.57c-13,0-23.58-10.59-23.58-23.29V23.59c0-13,10.89-23.59,23.58-23.59s23.61,10.59,23.61,23.59v192.39c0,13-10.89,23.59-23.61,23.59Z" style="fill:#383737; stroke-width:0px;"/><path d="m445.85,289.42c2.11-2.01,5.03-3.32,7.45-3.32,4.53,0,7.95,3.32,7.95,7.85,0,1.61-.5,3.02-1.61,4.23-1.11,1.21-1.71,1.51-5.44,2.82-6.74,2.42-11.17,6.44-11.17,10.17v23.15c0,4.23-3.52,7.75-7.75,7.75s-7.85-3.42-7.85-7.65v-40.67c0-4.13,3.63-7.55,7.95-7.55,1.81,0,4.63,2.42,7.55,6.44.91-1.21,1.91-2.32,2.92-3.22Z" style="fill:#fdc815; stroke-width:0px;"/><path d="m501.32,324.45c1.91,2.52,5.94,4.43,10.16,4.43,3.32,0,6.85-1.01,10.17-2.82,3.52-2.01,4.73-2.42,6.14-2.42,3.62,0,6.64,2.72,6.64,6.24,0,6.34-11.68,12.48-23.96,12.48-16.71,0-28.38-11.58-28.38-27.78s11.67-28.58,26.87-28.58c14.29,0,26.27,12.08,26.27,26.57,0,4.63-1.81,6.34-6.75,6.34h-29.79c.91,2.42,1.71,4.33,2.62,5.54Zm1.01-41.87c-3.93,0-7.05-2.42-7.05-5.44s1.61-5.74,4.03-6.74l13.18-5.23c.6-.2,1.21-.3,1.71-.3,3.82,0,6.94,2.52,6.94,5.54s-1.51,5.74-3.83,6.64l-13.38,5.24c-.5.2-1.01.3-1.61.3Zm-3.93,26.47h21.44c-1.41-7.05-4.93-10.67-10.57-10.67s-9.36,3.73-10.87,10.67Z" style="fill:#fdc815; stroke-width:0px;"/><path d="m581.06,298.98c-2.72,0-4.73,1.41-4.73,3.32,0,2.21,1.41,3.02,8.35,5.74,5.44,2.11,7.75,3.22,10.47,4.83,4.33,2.82,6.85,7.35,6.85,12.18,0,10.17-8.96,17.31-21.34,17.31-11.07,0-21.14-5.44-21.14-11.48,0-3.62,2.92-6.74,6.54-6.74,1.31,0,3.02.6,4.93,1.41l2.82,1.61c2.62,1.41,5.54,2.21,7.45,2.21,3.12,0,5.54-1.81,5.54-4.13,0-1.81-2.01-3.42-5.94-4.83l-4.13-1.61c-4.83-1.71-8.45-3.42-10.57-4.93-3.02-2.22-4.93-6.34-4.93-10.67,0-10.07,8.76-17.31,20.84-17.31,9.86,0,18.62,4.83,18.62,10.57,0,3.42-2.72,6.34-6.14,6.34-1.01,0-2.42-.3-3.42-.81l-2.72-1.21c-2.62-1.11-5.64-1.81-7.35-1.81Z" style="fill:#fdc815; stroke-width:0px;"/><path d="m646.6,324.45c1.91,2.52,5.94,4.43,10.16,4.43,3.32,0,6.85-1.01,10.17-2.82,3.52-2.01,4.73-2.42,6.14-2.42,3.63,0,6.65,2.72,6.65,6.24,0,6.34-11.68,12.48-23.96,12.48-16.71,0-28.38-11.58-28.38-27.78s11.67-28.58,26.87-28.58c14.29,0,26.27,12.08,26.27,26.57,0,4.63-1.81,6.34-6.75,6.34h-29.79c.91,2.42,1.71,4.33,2.62,5.54Zm-2.92-15.4h21.44c-1.41-7.05-4.93-10.67-10.57-10.67s-9.36,3.73-10.87,10.67Z" style="fill:#fdc815; stroke-width:0px;"/><path d="m725.93,289.42c2.11-2.01,5.03-3.32,7.45-3.32,4.53,0,7.95,3.32,7.95,7.85,0,1.61-.5,3.02-1.61,4.23-1.11,1.21-1.71,1.51-5.44,2.82-6.74,2.42-11.17,6.44-11.17,10.17v23.15c0,4.23-3.52,7.75-7.75,7.75s-7.85-3.42-7.85-7.65v-40.67c0-4.13,3.63-7.55,7.95-7.55,1.81,0,4.63,2.42,7.55,6.44.91-1.21,1.91-2.32,2.92-3.22Z" style="fill:#fdc815; stroke-width:0px;"/><path d="m792.98,291.63c1.01-3.22,3.83-5.43,7.25-5.43,4.43,0,7.95,3.42,7.95,7.75,0,1.21-.2,2.32-.7,3.32l-15.2,38.25c-1.81,4.63-4.03,6.44-8.15,6.44s-6.84-2.01-8.56-6.44l-15.3-38.25c-.4-1.01-.6-2.11-.6-3.32,0-4.33,3.32-7.75,7.95-7.75,3.22,0,6.14,2.21,7.24,5.43l9.06,27.58,9.06-27.58Z" style="fill:#fdc815; stroke-width:0px;"/><path d="m876.74,286.1c4.23,0,7.65,3.02,7.65,6.64v42.27c0,3.93-3.42,7.15-7.75,7.15-1.91,0-4.63-2.42-7.35-6.34-4.93,5.14-7.65,6.44-13.59,6.44-13.79,0-24.56-12.28-24.56-27.98s10.87-28.28,24.76-28.28c5.64,0,8.46,1.21,13.59,5.84,2.62-3.52,5.34-5.74,7.25-5.74Zm-30.09,28.18c0,8.05,4.73,13.89,11.07,13.89s11.17-5.74,11.17-13.89-4.53-13.99-11.17-13.99-11.07,5.74-11.07,13.99Z" style="fill:#fdc815; stroke-width:0px;"/><path d="m915.52,300.69c-4.03,0-7.15-3.22-7.15-6.95s3.12-6.84,7.15-6.84h2.52v-9.06c0-4.23,3.42-7.75,7.75-7.75s7.65,3.52,7.65,7.75l-.1,9.06h4.73c3.82,0,6.94,3.12,6.94,6.94s-3.12,6.95-7.05,6.95h-4.63l.1,33.42c0,4.33-3.42,7.85-7.65,7.85s-7.65-3.52-7.65-7.85v-33.52h-2.62Z" style="fill:#fdc815; stroke-width:0px;"/><path d="m975.22,263.35c4.73,0,8.76,4.13,8.76,9.06s-3.83,8.86-8.76,8.86-9.06-4.03-9.06-8.86,4.03-9.06,9.06-9.06Zm0,78.81c-4.33,0-7.95-3.52-7.95-7.75v-40.36c0-4.33,3.63-7.85,7.95-7.85s7.75,3.52,7.75,7.85v40.26c0,4.33-3.52,7.85-7.75,7.85Z" style="fill:#fdc815; stroke-width:0px;"/><path d="m1037.63,285.9c15.1,0,26.67,12.38,26.67,28.28s-11.58,28.19-26.67,28.19c-15.1.1-26.57-12.28-26.57-28.39s11.57-28.08,26.57-28.08Zm-11.17,28.28c0,8.46,4.73,14.49,11.17,14.49s11.17-5.94,11.17-14.39-4.73-14.29-11.17-14.29-11.17,5.94-11.17,14.19Z" style="fill:#fdc815; stroke-width:0px;"/><path d="m1109.42,289.62c2.92-2.32,7.75-3.73,12.18-3.73,5.43,0,10.87,1.91,14.69,5.54,3.72,3.52,5.33,7.65,5.33,13.99v28.99c0,4.33-3.52,7.85-7.75,7.85s-7.95-3.52-7.95-7.75v-26.47c0-4.93-4.03-9.06-9.06-9.06s-8.96,4.13-8.96,9.06v26.37c0,4.23-3.52,7.75-7.85,7.75s-7.75-3.52-7.75-7.85v-40.16c0-4.33,3.52-7.95,7.85-7.95,1.61,0,4.23,2.21,6.84,5.64,1.11-1.11,1.81-1.81,2.42-2.22Z" style="fill:#fdc815; stroke-width:0px;"/></g></svg>